# xmcd
# Track frame offsets:
# 150
# 9715
# 21687
# 32235
# 43952
# 57040
# 70665
# 82582
# 93013
# 104578
#
# Disc length: 1541 seconds
# Revision: 0
# Processed by: cddbd v1.4PL0 Copyright (c) Steve Scherf et al.
# Submitted via: VisiTrax 2.9.5.180 - For more info visit www.synapsa.com
#
DISCID=7a06030a
DTITLE=Alton Wayne - Down Home Music
DYEAR=1999
DGENRE=
TTITLE0=Down home music
TTITLE1=Waltz of the ocean
TTITLE2=The turn around
TTITLE3=Going there alone
TTITLE4=The greatest mission
TTITLE5=Scandian grass
TTITLE6=Goodbye foggy valle
TTITLE7=Watch out for eas listening
TTITLE8=The little ones
TTITLE9=Mystic river Jordan
EXTD=
EXTT0=
EXTT1=
EXTT2=
EXTT3=
EXTT4=
EXTT5=
EXTT6=
EXTT7=
EXTT8=
EXTT9=
PLAYORDER=
